<?xml version="1.0" encoding="UTF-8"?>
<!-- Created with Inkscape (http://www.inkscape.org/) -->
<svg width="1333.3" height="1333.3" version="1.1" viewBox="0 0 1333.3 1333.3" xml:space="preserve" xmlns="http://www.w3.org/2000/svg" xmlns:cc="http://creativecommons.org/ns#" xmlns:dc="http://purl.org/dc/elements/1.1/" xmlns:rdf="http://www.w3.org/1999/02/22-rdf-syntax-ns#"><metadata><rdf:RDF><cc:Work rdf:about=""><dc:format>image/svg+xml</dc:format><dc:type rdf:resource="http://purl.org/dc/dcmitype/StillImage"/><dc:title/></cc:Work></rdf:RDF></metadata><defs><clipPath id="clipPath18"><path d="m0 1e3h1e3v-1e3h-1e3z"/></clipPath></defs><g transform="matrix(1.3333 0 0 -1.3333 0 1333.3)"><g clip-path="url(#clipPath18)"><g transform="translate(473.7 553.52)"><path d="m0 0c-23.91 0-41.063-17.932-41.063-44.182 0-26.251 17.153-44.179 41.063-44.179 17.414 0 31.448 5.714 40.805 16.63l16.63-16.63c-12.476-16.377-32.488-25.735-58.734-25.735-41.063 0-69.653 28.329-69.653 69.914 0 41.843 28.59 70.428 69.653 70.428 24.95 0 44.439-8.053 57.174-22.611l-16.37-19.229c-9.619 9.876-22.875 15.851-39.505 15.594" fill="#008a82"/></g><g transform="translate(681.34 578.73)"><path d="m0 0v-138.26h-29.889v27.029c-9.355-19.232-26.765-27.806-49.377-28.07-31.707 0-50.676 20.276-50.676 53.281v86.022h29.884v-77.707c0-20.792 12.216-33.526 32.228-33.526 23.911 0.523 37.941 18.972 37.941 43.143v68.09z" fill="#008a82"/></g><g transform="translate(796.73 579.77)"><path d="m0 0v-28.585c-27.809 1.556-45.481-14.815-47.818-38.468v-72.248h-29.887v138.26h29.887v-27.546c9.356 18.71 25.99 28.585 47.818 28.585" fill="#008a82"/></g><g transform="translate(847.15 618.24)"><path d="m0 0c0-10.136-7.54-17.673-17.412-17.673-9.877 0-17.413 7.537-17.413 17.673 0 10.396 7.536 17.933 17.413 17.933 9.872 0 17.412-7.537 17.412-17.933" fill="#f15a29"/></g><path d="m844.54 440.47h-29.625v138.26h29.625z" fill="#008a82"/><g transform="translate(914.46 618.24)"><path d="m0 0c0-10.136-7.541-17.673-17.413-17.673-9.876 0-17.413 7.537-17.413 17.673 0 10.396 7.537 17.933 17.413 17.933 9.872 0 17.413-7.537 17.413-17.933" fill="#f15a29"/></g><path d="m911.85 440.47h-29.625v138.26h29.625z" fill="#008a82"/><g transform="translate(131.67 492.85)"><path d="m0 0c0.628 4.633 3.756 8.256 7.824 9.843l-9.454 65.551c-0.213 0.021-0.426-0.01-0.638 0.021-2.008 0.27-3.807 1.046-5.367 2.126l-57.718-52.611c2.31-21.875 9.31-42.198 19.929-60.052l46.065 29.321c-0.641 1.805-0.924 3.766-0.641 5.801" fill="#f15a29"/></g><g transform="translate(135.54 569.04)"><path d="m0 0 9.451-65.545c0.223-0.018 0.432 0.01 0.648-0.02 0.975-0.131 1.887-0.395 2.767-0.737l38.262 56.827-44.955 14.619c-1.414-2.373-3.608-4.149-6.173-5.144" fill="#f15a29"/></g><g transform="translate(280.25 609.22)"><path d="m0 0-48.729-0.574c-1.211-5.586-6.039-9.562-11.655-9.744l-24.468-36.342 53.617-17.44c0 0.809-0.074 1.62-0.051 2.43 0.912 25.152 12.634 47.22 31.286 61.67" fill="#f15a29"/></g><g transform="translate(217.14 623.42)"><path d="m0 0 2.255 58.382c-4.958 0.183-9.984 0.112-15.047-0.205-15.084-0.972-29.49-4.186-42.934-9.259l51.399-50.633c1.31 0.834 2.768 1.411 4.327 1.715" fill="#f15a29"/></g><g transform="translate(132.75 592.86)"><path d="m0 0c6.582-0.901 11.22-6.828 10.639-13.386l46.505-15.128 24.123 35.815c-4.675 2.295-7.615 7.341-6.872 12.785 0.239 1.772 0.867 3.403 1.748 4.824l-53.093 52.29c-12.31-5.236-23.718-12.06-34.013-20.225l9.958-56.937c0.33-0.028 0.661 6e-3 1.005-0.038" fill="#f15a29"/></g><g transform="translate(135.28 482.35)"><path d="m0 0-46.12-29.351c14.73-22.781 35.474-41.144 59.841-53.023l-6.781 78.911c-2.738 0.383-5.104 1.664-6.94 3.463" fill="#008a82"/></g><g transform="translate(118.77 582.23)"><path d="m0 0c0.611 4.509 3.588 8.073 7.483 9.721l-9.4 53.816c-33.716-29.174-53.94-73.126-51.126-121.01l54.559 49.732c-1.283 2.272-1.897 4.952-1.516 7.74" fill="#f15a29"/></g><g transform="translate(361.67 546.89)"><path d="m0 0c-7.048-4.637-14.905-8.13-23.401-10.048-23.806-5.372-49.043-2.852-73.21-5.508 3.301-19.489 10.484-39.441 11.517-59.119 1.522-29.071-4.033-57.766-26.257-78.143-2.545-2.344-5.248-4.393-8.036-6.28 72.262 13.991 124.59 79.812 119.73 155.21-0.078 1.306-0.227 2.592-0.345 3.888" fill="#008a82"/></g><g transform="translate(250.67 529.01)"><path d="m0 0c-8.863-1.971-17.477-5.104-25.76-9.947 7.733-9.046 15.469-18.091 23.188-27.143 4.901-5.729-4.405-12.76-9.275-7.059-7.844 9.184-15.692 18.355-23.533 27.543-3.244-2.674-6.116-5.496-8.563-8.494 13.566-16.281 27.111-32.576 40.666-48.876 4.826-5.793-4.486-12.83-9.286-7.061-12.67 15.225-25.348 30.468-38.019 45.701-2.14-4.209-3.767-8.604-4.84-13.168 8.495-9.946 16.998-19.892 25.493-29.843 4.898-5.729-4.411-12.758-9.281-7.061-6.019 7.032-12.026 14.071-18.048 21.114 0 0-4.766-16.237-0.865-52.291-1.66 0.746-3.085 2.109-3.847 4.189-9.88 27.309-16.654 62.017 0.85 88.074 12.678 18.854 32.288 30.459 53.735 36.456l-51.115 16.627-39.174-58.167c2.461-2.63 3.791-6.261 3.274-10.104-0.661-4.881-4.104-8.68-8.509-10.1l7.041-82.087c11.054-4.806 22.783-8.293 34.971-10.297 31.35 2.055 62.177 14.151 70.26 48.559 4.169 17.775 3.976 36.163 0.456 54.069-2.558 13.035-7.277 26.098-9.819 39.366" fill="#008a82"/></g><g transform="translate(312.28 562.6)"><path d="m0 0c-9.515 0-17.227 7.709-17.227 17.228 0 9.514 7.712 17.227 17.227 17.227 9.519 0 17.228-7.713 17.228-17.227 0-9.519-7.709-17.228-17.228-17.228m-87.342 118.87-2.248-58.267c4.425-1.198 7.753-4.685 8.799-9.009l56.965 0.679c7.689 4.574 16.285 7.993 25.578 9.991 2.66 0.576 4.931-0.281 6.548-1.786l-2.677 1.573c-28.575-13.342-42.238-34.715-48.462-48.807-2.258-4.6-3.79-9.265-4.739-13.983-0.01-0.048-0.03-0.179-0.03-0.179-1.08-5.452-1.428-10.967-1.175-16.536 30.725 3.518 70.847-3.875 96.101 16.526-12.633 65.686-68.086 114.92-134.66 119.8" fill="#f15a29"/></g></g></g></svg>